# xmcd
#
# Track frame offsets:
# 150
# 17862
# 18757
#
# Disc length: 256 seconds
#
#
# Revision: 0
# Processed by: cddbd v1.5.2PL0 Copyright (c) Steve Scherf et al.
# Submitted via: FreeRIP 2.943 
#
DISCID=1600fe03
DTITLE=Clutch - the Elephant Riders (promo CD single)
DYEAR=1998
DGENRE=Samba
TTITLE0=In Love At Christmas
TTITLE1=Callout Hook #1
TTITLE2=Callout Hook #2
EXTD=Promotional single release for Clutch's album of the same title. Includes two radio callout hook clips as well. 
EXTT0=
EXTT1=
EXTT2=
PLAYORDER=
